<svg version="1.0" xmlns="http://www.w3.org/2000/svg" preserveAspectRatio="xMidYMid meet"
    viewBox="278.97 215.08 342.03 483.92">
    <g transform="translate(0.000000,900.000000) scale(0.100000,-0.100000)" fill="#fff"
        stroke="none">
        <path
            d="M4460 6838 c-14 -5 -68 -25 -120 -44 -276 -97 -896 -318 -1220 -434 -74 -26 -171 -61 -215 -76 -125 -44 -115 -11 -115 -396 0 -183 5 -372 10 -420 34 -296 152 -555 350 -770 203 -220 482 -369 773 -412 82 -13 199 -16 549 -16 276 0 467 -4 504 -11 167 -30 339 -160 416 -314 55 -108 65 -90 -159 -292 -109 -98 -232 -207 -273 -243 -41 -36 -102 -90 -135 -121 -152 -142 -311 -279 -325 -279 -14 0 -134 105 -485 420 -66 59 -192 171 -280 250 -88 78 -168 151 -177 162 -15 17 -18 39 -18 124 0 71 -4 105 -12 111 -7 4 -49 24 -92 45 -193 90 -343 197 -501 357 -49 50 -98 91 -107 91 -10 0 -22 -9 -28 -19 -6 -13 -10 -196 -10 -527 l0 -507 52 -46 c29 -25 99 -89 158 -141 143 -130 449 -404 520 -465 65 -57 614 -548 819 -732 92 -83 144 -123 160 -123 16 0 64 36 155 118 197 177 477 427 691 617 546 486 736 656 797 716 l68 65 0 102 c0 487 -202 883 -595 1164 -74 53 -268 144 -368 173 -162 46 -192 48 -722 55 -494 6 -512 7 -578 28 -164 55 -315 203 -372 367 -26 74 -42 218 -27 242 7 10 658 296 889 391 l61 25 64 -26 c57 -22 524 -223 623 -267 22 -9 85 -36 140 -60 55 -23 108 -49 118 -58 15 -13 17 -38 17 -239 l0 -224 73 -33 c203 -93 424 -259 553 -417 60 -73 93 -88 114 -50 7 13 10 272 10 770 0 709 -1 752 -18 769 -10 10 -74 37 -142 61 -69 24 -165 58 -215 76 -49 18 -200 72 -335 120 -135 47 -267 95 -295 105 -27 11 -122 45 -210 75 -88 31 -234 83 -325 116 -90 32 -169 59 -175 58 -5 0 -21 -5 -35 -11z"></path>
    </g>
</svg>